<?xml version="1.0" encoding="utf-8"?>
<!-- Generator: Adobe Illustrator 25.2.3, SVG Export Plug-In . SVG Version: 6.00 Build 0)  -->
<svg version="1.1" id="Calque_1" xmlns="http://www.w3.org/2000/svg" xmlns:xlink="http://www.w3.org/1999/xlink" x="0px" y="0px"
	 viewBox="0 0 192.7 36.6" style="enable-background:new 0 0 192.7 36.6;" xml:space="preserve">
<style type="text/css">
	.st0{fill:#FFFFFF;stroke:#000000;stroke-miterlimit:10;}
	.st1{opacity:0.1;fill:#7F8083;enable-background:new    ;}
</style>
<path class="st0" d="M89.4,34.2c5.1-0.7,8.3-4.6,8.3-10.1c0-1.5-0.2-2.9-0.6-4.4c-1.6-6.3-4.9-11.8-8.6-17C88,2,87.8,2.5,87.6,2.9
	c-2.6,3.6-5,7.4-6.7,11.5c-1.5,3.4-2.5,6.9-2.4,10.7C78.8,30.9,83.7,35,89.4,34.2z M80.9,21c0.1-0.4,0.2-0.7,0.5-0.9
	c0.3,0,0.3,0.3,0.4,0.5c0.1,0.3,0.1,0.6,0.1,0.9c0.4,2.8,1.1,5.5,2.6,7.8c0.2,0.3,0.4,0.6,0.5,0.9c0.1,0.2,0.2,0.4,0.1,0.6
	c-0.2,0.3-0.5,0.2-0.7,0.1c-1-0.4-1.7-1.1-2.3-2C80.6,26.5,80.4,23.8,80.9,21z"/>
<ellipse class="st1" cx="11.1" cy="36.2" rx="10.1" ry="0.5"/>
<g>
	<path class="st0" d="M35.5,34c6.2,0.1,10.4-4.3,10.4-10.9c0-1.4-0.2-2.9-0.6-4.5c-1.7-6.5-5.1-12.2-9-17.6
		c-0.5-0.7-0.7-0.2-0.9,0.1c-2.8,3.8-5.2,7.8-7.1,12.2c-1.5,3.4-2.5,6.9-2.5,10.7C25.9,29.6,30,33.9,35.5,34z M29.4,15.2
		c0,0,0.1-0.1,0.2-0.1c0.3,1.1-0.1,2.1-0.2,3.1C29,21.7,29.2,25,31.2,28c0.3,0.4,0.3,0.8-0.1,1.1c-0.4,0.4-0.8,0.3-1.2,0
		c-0.9-0.7-1.4-1.6-1.7-2.7C27.3,22.6,27.9,18.8,29.4,15.2z"/>
	<g>
		<path class="st0" d="M2.9,31.3c2.7,2.5,6,3.3,9.5,2.6c5-1,7.9-4.7,7.7-9.8c-0.1-3.2-1.4-6.1-2.9-8.8C14.3,10.4,11,5.8,10.1,0
			c-0.4,1.2-0.6,2.5-1,3.7C8,7.3,6,10.4,4.2,13.5c-1.6,2.6-3.1,5.3-3.7,8.3C-0.2,25.3,0,28.7,2.9,31.3z M7.7,30
			c0.2,0.9-0.3,1.5-1.3,1.4c-0.9-0.1-2-1-2.2-1.9C4,28.5,4.4,28,5.3,28S7.5,29,7.7,30z M2.1,23.9c-0.1-3.3,1.4-6,3.4-8.6
			c-0.1,0.8-0.2,1.6-0.2,2.4c-0.1,1.5-0.1,3.1,0.1,4.6c0.2,1.1,0,2.1-1,2.9c-0.9,0.8-2,0.4-2.3-0.7C2.2,24.3,2.1,24.1,2.1,23.9z"/>
	</g>
	<ellipse class="st1" cx="10.1" cy="36.2" rx="10.1" ry="0.5"/>
	<ellipse class="st1" cx="61.8" cy="36.2" rx="10.1" ry="0.5"/>
	<ellipse class="st1" cx="87" cy="36.2" rx="10.1" ry="0.5"/>
	<ellipse class="st1" cx="35.8" cy="36.1" rx="10.1" ry="0.5"/>
</g>
<path class="st0" d="M73.1,20.6c-0.6-2.9-2.3-5-4-7.2c-1.8-2.4-2.9-5.1-2.5-8.2c0.1-1.2,0.5-2.4,0.9-3.8c-2.8,1.2-5.1,2.7-7.2,4.7
	c-4.7,4.5-8,9.8-8.5,16.5c-0.4,4.5,1.6,8.1,5.6,10.3c4.1,2.2,8.2,1.8,11.9-1.1C72.9,28.9,74.1,25.1,73.1,20.6z M69.3,29.6
	c-3.8,3.9-9.4,2.3-9.4,2.3c9.9-1,11.2-10.4,11.2-10.4S72,26.4,69.3,29.6z"/>
<path class="st0" d="M103.3,24.2c2-4,4-8,5.9-12l5.9,12h-2.9l-0.9-1.7h-4.4l-0.8,1.7H103.3z M110.1,19.9l-0.9-1.8l-0.9,1.8H110.1z"
	/>
<path class="st0" d="M128.3,17.8c0-2,1-3.7,2.6-4.7c0.8-0.5,1.8-0.8,2.9-0.8c3,0,5.5,2.5,5.5,5.6v0.8c0,1.3-0.4,2.5-1.2,3.5l1.7,2.1
	h-3.3l-0.4-0.5c-0.7,0.3-1.4,0.5-2.2,0.5c-1,0-2-0.3-2.9-0.8c-1.6-1-2.6-2.7-2.6-4.7v-1H128.3z M136.7,18.7v-0.8
	c0-1.6-1.3-2.9-2.9-2.9c-1.6,0-2.9,1.3-2.9,2.9v0.8c0,1.6,1.3,2.9,2.9,2.9c0.2,0,0.3,0,0.5,0l-1.6-2h3.3l0.4,0.4
	C136.6,19.6,136.7,19.2,136.7,18.7z"/>
<path class="st0" d="M155.3,12.3v2.6v3.8c0,1.6,1.3,2.9,2.9,2.9c1.6,0,2.9-1.3,2.9-2.9v-3.8v-2.6h2.6v6.4c0,2-1,3.7-2.6,4.7
	c-0.8,0.5-1.8,0.8-2.9,0.8c-1,0-2-0.3-2.9-0.8c-1.6-1-2.6-2.7-2.6-4.7v-6.4C152.7,12.3,155.3,12.3,155.3,12.3z"/>
<path class="st0" d="M180.9,24.2c2-4,4-8,5.9-12l5.9,12h-2.9l-0.9-1.7h-4.4l-0.8,1.7H180.9z M187.7,19.9l-0.9-1.8l-0.9,1.8H187.7z"
	/>
</svg>
